# xmcd
#
# Track frame offsets: 
#        150
#        25700
#        50930
#        77475
#
# Disc length: 1372 seconds
#
# Revision: 0
# Processed by: cddbd v1.5PL3 Copyright (c) Steve Scherf et al.
# Submitted via: ExactAudioCopy v0.95a3
#
DISCID=28055a04
DTITLE=Ajapai - The Lover in You
DYEAR=2001
DGENRE=R&B
TTITLE0=The Lover in You (Original Mix)
TTITLE1=The Lover in You (Original Instrumental)
TTITLE2=The Lover in You (The B-15 Project Main Vocal Mix)
TTITLE3=The Lover in You (The B-15 Project Dub Mix)
EXTD=
EXTT0=
EXTT1=
EXTT2=
EXTT3=
PLAYORDER=
